<mxfile host="app.diagrams.net" modified="2024-07-17T12:12:47.563Z" agent="Mozilla/5.0 (Windows NT 10.0; Win64; x64) AppleWebKit/537.36 (KHTML, like Gecko) Chrome/126.0.0.0 Safari/537.36" etag="9SHRMEP7QHLlZMyNUrH1" version="24.7.0" type="github">
  <diagram name="Trang-1" id="LlMixWFhONUNZASiiO3O">
    <mxGraphModel dx="756" dy="388" grid="1" gridSize="10" guides="1" tooltips="1" connect="1" arrows="1" fold="1" page="1" pageScale="1" pageWidth="850" pageHeight="1100" math="0" shadow="0">
      <root>
        <mxCell id="0" />
        <mxCell id="1" parent="0" />
        <mxCell id="qBExFxkKFhC-PHAohK6D-3" value="" style="edgeStyle=orthogonalEdgeStyle;rounded=0;orthogonalLoop=1;jettySize=auto;html=1;" edge="1" parent="1" source="qBExFxkKFhC-PHAohK6D-1" target="qBExFxkKFhC-PHAohK6D-2">
          <mxGeometry relative="1" as="geometry" />
        </mxCell>
        <mxCell id="qBExFxkKFhC-PHAohK6D-1" value="Gán các chân IO cho 5 cổng giao tiếp và&amp;nbsp; chân điều tiêu" style="rounded=0;whiteSpace=wrap;html=1;" vertex="1" parent="1">
          <mxGeometry x="365" y="60" width="120" height="60" as="geometry" />
        </mxCell>
        <mxCell id="qBExFxkKFhC-PHAohK6D-2" value="Khởi tạo các biến và thiết đặt tham số 5 cổng giao tiếp" style="rounded=0;whiteSpace=wrap;html=1;" vertex="1" parent="1">
          <mxGeometry x="365" y="150" width="120" height="60" as="geometry" />
        </mxCell>
      </root>
    </mxGraphModel>
  </diagram>
</mxfile>
